<svg class="css-wkt2rv" width="26" height="12" viewBox="0 0 26 12" fill="none" xmlns="http://www.w3.org/2000/svg"><path fill-rule="evenodd" clip-rule="evenodd" d="M6 0H19.0286C22.2857 0 25.0286 2.65714 25.0286 6C25.0286 9.34286 22.3714 12 19.0286 12H6C2.65714 12 0 9.34286 0 6C0 2.65714 2.65714 0 6 0ZM6 1.02857C3.25714 1.02857 1.02857 3.25714 1.02857 6C1.02857 8.74286 3.25714 10.9714 6 10.9714H11.8286L14.4857 1.02857H6ZM20.7429 4.11424C20.9143 3.94281 20.9143 3.59995 20.7429 3.42853C20.5715 3.2571 20.2286 3.2571 20.0572 3.42853L18.1715 5.31424L16.2857 3.42853C16.1143 3.2571 15.7715 3.2571 15.6 3.42853C15.4286 3.59995 15.4286 3.94281 15.6 4.11424L17.4857 5.99996L15.6857 7.88567C15.5143 8.0571 15.5143 8.39996 15.6857 8.57138C15.8572 8.74281 16.2 8.74281 16.3715 8.57138L18.2572 6.68567L20.1429 8.57138C20.3143 8.74281 20.6572 8.74281 20.8286 8.57138C21 8.39996 21 8.0571 20.8286 7.88567L18.9429 5.99996L20.7429 4.11424Z" fill="#0066FF"></path><path d="M10.5428 3.51431C10.7143 3.68574 10.8 4.0286 10.6285 4.20003L7.02854 8.40003C6.94283 8.48574 6.85711 8.57146 6.7714 8.57146C6.59997 8.65717 6.34283 8.65717 6.1714 8.48574L4.28568 6.60003C4.11425 6.4286 4.11425 6.08574 4.28568 5.91431C4.45711 5.74289 4.79997 5.74289 4.9714 5.91431L6.51426 7.37146L9.7714 3.51431C9.94283 3.34289 10.2857 3.34289 10.5428 3.51431Z" fill="#0066FF"></path></svg>
